<?xml version="1.0" encoding="UTF-8"?>
<svg id="Layer_1" xmlns="http://www.w3.org/2000/svg" version="1.1" viewBox="0 0 154.6 159">
  <!-- Generator: Adobe Illustrator 29.6.1, SVG Export Plug-In . SVG Version: 2.1.1 Build 9)  -->
  <defs>
    <style>
      .st0 {
        fill: #f04d2e;
      }

      .st1 {
        fill: #b02b24;
      }

      .st2 {
        fill: #f2b8b3;
      }

      .st3 {
        fill: #fff;
      }

      .st4 {
        fill: #d83726;
      }

      .st5 {
        fill: #262964;
      }

      .st6 {
        fill: #f37565;
      }
    </style>
  </defs>
  <polygon class="st5" points="154 88.2 138.3 50.8 137.9 49.8 137.2 49 109.8 19.1 108.9 18.1 107.6 17.6 69.3 2.2 63.9 0 61.5 5.3 54.8 20.4 48.2 34.4 4 128.9 0 137.5 0 137.5 4.4 159 147.6 159 150.3 132.1 154.4 91.2 154.6 89.6 154 88.2"/>
  <g>
    <path class="st3" d="M8.7,154.8l-2.2-16.9h3.2l1.6,14.7h.4l2.1-14.7h5.5l2.1,14.7h.4l1.6-14.7h3.2l-2.2,16.9h-5.5l-2.2-15h-.4l-2.2,15h-5.5Z"/>
    <path class="st3" d="M28.1,154.8v-16.9h3.2v16.9h-3.2Z"/>
    <path class="st3" d="M33.6,154.8v-16.9h6.1l3.4,14.8h.4v-14.8h3.1v16.9h-6.1l-3.4-14.8h-.4v14.8h-3.1Z"/>
    <path class="st3" d="M48.8,154.8v-16.9h6.1l3.4,14.8h.4v-14.8h3.1v16.9h-6.1l-3.4-14.8h-.4v14.8h-3.1Z"/>
    <path class="st3" d="M64,154.8v-16.9h3.2v16.9h-3.2Z"/>
    <path class="st3" d="M69.5,154.8v-16.9h7c1.1,0,2,.2,2.8.6.8.4,1.5,1,1.9,1.8.5.8.7,1.7.7,2.8v.3c0,1-.2,2-.7,2.7s-1.1,1.4-1.9,1.8c-.8.4-1.7.6-2.8.6h-3.8v6.2h-3.2ZM72.7,145.7h3.5c.8,0,1.4-.2,1.8-.6.5-.4.7-1,.7-1.7v-.2c0-.7-.2-1.3-.7-1.7-.5-.4-1.1-.6-1.8-.6h-3.5v4.9Z"/>
    <path class="st3" d="M83.1,154.8v-16.9h10.9v2.9h-7.7v4h7v2.9h-7v4.2h7.8v2.9h-11Z"/>
    <path class="st3" d="M101.4,155.2c-1.2,0-2.2-.3-3.2-.8-.9-.5-1.7-1.3-2.2-2.3s-.8-2.2-.8-3.7v-4.1c0-2.2.6-3.9,1.8-5,1.2-1.2,2.9-1.8,5-1.8s3.7.6,4.8,1.7c1.1,1.1,1.7,2.6,1.7,4.5h0c0,0-3.1,0-3.1,0v-.2c0-.6-.1-1.1-.4-1.6s-.6-.9-1.1-1.1c-.5-.3-1.1-.4-1.9-.4-1.1,0-2,.3-2.7,1s-1,1.6-1,2.8v4.2c0,1.2.3,2.1,1,2.8s1.5,1.1,2.7,1.1,2-.3,2.5-.9.8-1.4.8-2.3v-.2h-4v-2.7h7.2v8.7h-3v-1.6h-.4c-.1.3-.3.6-.5.9-.2.3-.6.6-1.1.8s-1.2.3-2.1.3Z"/>
    <path class="st3" d="M112.6,155.2c-.6,0-1.2-.2-1.6-.6s-.7-1-.7-1.7.2-1.2.7-1.7,1-.6,1.6-.6,1.2.2,1.6.6.7,1,.7,1.7-.2,1.2-.7,1.7-1,.6-1.6.6Z"/>
    <path class="st3" d="M116.8,154.8v-16.9h7.4c1.1,0,2,.2,2.8.6.8.4,1.4.9,1.8,1.6.4.7.7,1.5.7,2.4v.3c0,1-.2,1.8-.7,2.5-.5.6-1.1,1.1-1.8,1.4v.4c.6,0,1.1.3,1.5.7.4.4.5,1,.5,1.6v5.5h-3.2v-5.1c0-.4-.1-.7-.3-.9-.2-.2-.5-.4-1-.4h-4.5v6.4h-3.2ZM120,145.5h3.8c.8,0,1.4-.2,1.8-.6s.6-1,.6-1.6v-.2c0-.7-.2-1.2-.6-1.6s-1-.6-1.8-.6h-3.8v4.7Z"/>
    <path class="st3" d="M131.2,154.8v-16.9h7.6c1,0,1.9.2,2.7.5.8.3,1.4.8,1.8,1.5.4.6.6,1.4.6,2.3v.2c0,.8-.1,1.4-.4,1.9-.3.5-.6.9-1,1.1-.4.3-.8.5-1.1.6v.4c.4,0,.7.3,1.2.5.4.3.8.6,1.1,1.1.3.5.4,1.2.4,2v.2c0,.9-.2,1.7-.7,2.4-.4.7-1,1.2-1.8,1.5-.8.4-1.7.5-2.7.5h-7.7ZM134.4,144.9h4.1c.7,0,1.2-.2,1.6-.5.4-.3.6-.8.6-1.4v-.2c0-.6-.2-1.1-.6-1.4-.4-.3-1-.5-1.6-.5h-4.1v4.1ZM134.4,151.9h4.1c.7,0,1.3-.2,1.7-.5s.6-.8.6-1.5v-.2c0-.6-.2-1.1-.6-1.5-.4-.3-1-.5-1.7-.5h-4.1v4.2Z"/>
  </g>
  <polygon class="st4" points="65.4 11.7 57.8 106.5 62 131.5 9.5 131.5 40.4 110.6 46.5 100.4 60.2 22.9 65.4 11.7"/>
  <polygon class="st2" points="62 103.8 61.8 106.3 66.1 131.5 85.6 131.5 62 103.8"/>
  <polygon class="st6" points="131.4 131.5 142.6 131.5 66.9 43.1 65.9 54.6 131.4 131.5"/>
  <polygon class="st0" points="65.5 60.3 64.8 69.2 117.9 131.5 121.6 131.5 126.1 131.5 65.5 60.3"/>
  <polygon class="st4" points="64.3 74.8 63.6 83.7 104.3 131.5 112.6 131.5 64.3 74.8"/>
  <polygon class="st1" points="63.2 89.3 62.4 98.2 90.8 131.5 99.1 131.5 63.2 89.3"/>
  <polygon class="st4" points="135.8 89.9 135.2 82.9 130.7 76.8 118.8 77 116.6 71.2 108.6 70.9 99.3 59.1 96.2 33.4 90.9 27.5 88.3 29.3 87.5 61 144.7 127.7 147.8 97.8 145.7 93.8 135.8 89.9"/>
  <polygon class="st1" points="134.3 56.7 132.8 53.1 130.3 50.3 102.3 50.3 103 56.7 134.3 56.7"/>
  <polygon class="st4" points="114.3 67.1 138.7 67.1 136 60.7 105.6 60.7 110.6 66.9 114.3 67.1"/>
  <polygon class="st0" points="143 77.5 140.3 71.1 120.9 71.1 121.6 73 132.7 72.7 136.2 77.5 143 77.5"/>
  <polygon class="st6" points="139.1 81.5 139.6 87.1 148.5 90.6 144.7 81.5 139.1 81.5"/>
  <polygon class="st6" points="18.8 111.5 12.9 124.1 31.7 111.5 18.8 111.5"/>
  <polygon class="st0" points="23.7 101.1 20.7 107.5 37.6 107.5 41.5 101.1 23.7 101.1"/>
  <polygon class="st4" points="28.7 90.3 25.6 97.1 43.1 97.1 44.3 90.3 28.7 90.3"/>
  <polygon class="st2" points="53.7 36.9 35.5 75.9 46.8 75.9 53.7 36.9"/>
  <polygon class="st1" points="33.6 79.9 30.6 86.3 45 86.3 46.1 79.9 33.6 79.9"/>
  <polygon class="st2" points="105.4 23.2 69.6 8.8 67.3 37.5 74.9 46.3 83.9 46.3 84.3 27.1 91.5 22.3 100 31.6 101.8 46.3 126.6 46.3 105.4 23.2"/>
  <polygon class="st1" points="78.4 50.3 83.6 56.5 83.8 50.3 78.4 50.3"/>
</svg>